<svg xmlns="http://www.w3.org/2000/svg" version="1.1" xmlns:xlink="http://www.w3.org/1999/xlink" xmlns:svgjs="http://svgjs.com/svgjs" width="1000" height="1000"><svg xmlns="http://www.w3.org/2000/svg" xmlns:xlink="http://www.w3.org/1999/xlink" version="1.1" width="1000" height="1000" viewBox="0 0 1000 1000" xml:space="preserve">
<desc>Created with Fabric.js 3.5.0</desc>
<defs>
</defs>
<rect x="0" y="0" width="100%" height="100%" style="fill-opacity:0"></rect>
<g transform="matrix(2.9311 0 0 2.9311 504.6747 495.7289)" id="SvgjsG1011">
<g style="">
		<g transform="matrix(7.0718 0 0 7.0718 -0.0009 -0.0011)" id="SvgjsG1010">
<path style="stroke: none; stroke-width: 1; stroke-dasharray: none; stroke-linecap: butt; stroke-dashoffset: 0; stroke-linejoin: miter; stroke-miterlimit: 4; is-custom-font: none; font-file-url: none; fill: rgb(3,177,202); fill-rule: nonzero; opacity: 1;" transform=" translate(-65.1084, -65.0983)" d="M 58.696316 59.275829 C 60.454292 58.059124 61.661671 56.286102 64.103874 56.837135 C 64.650871 56.716873 64.980156 56.380756 65.673943 55.93235 C 66.222237 55.731136 66.454781 55.690594 67.023468 55.760494 C 67.553986 56.004242 67.748367 56.13755 68.199234 56.513596 C 68.603134 56.939556 68.750542 57.122776 69.086411 57.603474 C 69.393822 58.102875 69.512764 58.304802 69.80957 58.809101 C 70.097763 59.317066 70.208099 59.522655 70.405304 60.066505 C 70.438057 60.630733 70.383934 60.856701 70.083153 61.32814 C 69.451324 61.837215 69.121994 62.157185 68.72261 62.862541 C 69.254967 67.852928 72.620834 71.056656 75.056351 74.719521 C 76.835884 77.395836 77.854347 74.732796 78.513206 73.549278 C 81.362457 68.431129 81.480515 62.689777 81.772911 57.054573 C 82.185371 49.105522 81.856789 48.749786 74.147644 47.135372 C 66.83757 45.604534 59.579937 45.826202 52.472378 48.26326 C 50.96439 48.780331 48.885601 49.01305 48.85516 51.152271 C 48.705658 61.659016 48.033512 72.252197 57.27948 80.200829 C 59.091991 81.759026 62.575161 80.584106 62.930305 83.92865 C 63.07169 85.260109 64.902031 87.013855 62.905449 87.860092 C 61.092865 88.628349 58.73476 89.113297 57.121014 86.985939 C 56.640785 86.352867 56.517483 85.341736 55.931366 84.912125 C 43.867554 76.069542 44.031216 63.09573 43.991135 50.129189 C 43.983051 47.513664 45.14513 46.196537 47.383171 45.289169 C 59.214138 40.492542 71.039062 40.479946 82.862213 45.255329 C 84.378693 45.867836 86.104866 46.441105 86.134697 48.557079 C 86.256622 57.207836 86.718513 65.899124 83.348923 74.168823 C 83.098785 74.782715 82.770523 75.368576 82.439888 75.94529 C 77.28038 84.945107 75.923065 84.984497 70.300461 76.513885 C 67.922089 72.930809 66.078125 68.919533 61.84967 66.19001 C 61.018093 66.234222 60.811413 66.353134 60.27002 66.599106 C 59.700432 66.682098 59.465561 66.638031 58.930229 66.397514 C 58.468189 66.024094 58.306606 65.847115 57.948875 65.368423 C 57.629635 64.860565 57.506542 64.654404 57.20108 64.137482 C 56.910263 63.612221 56.801811 63.39772 56.638153 62.827076 C 56.672493 62.248573 56.762047 62.026207 57.141525 61.59351 C 57.988922 60.905521 58.348221 60.301556 58.696316 59.275829 z" stroke-linecap="round"></path>
</g>
		<g transform="matrix(7.0718 0 0 7.0718 27.2392 -51.792)" id="SvgjsG1009">
<path style="stroke: none; stroke-width: 1; stroke-dasharray: none; stroke-linecap: butt; stroke-dashoffset: 0; stroke-linejoin: miter; stroke-miterlimit: 4; is-custom-font: none; font-file-url: none; fill: rgb(3,177,203); fill-rule: nonzero; opacity: 1;" transform=" translate(-68.9602, -57.7746)" d="M 64.740303 57.072189 C 64.428268 56.961704 64.364983 57.036118 64.36441 57.065521 C 65.026901 55.126064 65.54821 52.138992 68.055374 52.860107 C 71.1306 53.744598 72.389587 57.252483 73.412025 60.027294 C 74.167168 62.076664 71.811974 62.729153 69.608246 62.799202 C 68.451782 62.650951 68.545036 61.931911 68.160034 61.189835 C 67.977356 60.952877 68.00808 60.995014 68.025772 61.014168 C 67.802933 60.800247 67.564476 60.565056 67.151978 60.148651 C 66.97583 59.969563 67.001968 60.012043 67.01767 60.031425 C 66.583862 59.599796 66.512062 58.987682 66.155731 58.179836 C 65.973938 57.940277 66.013245 57.992214 66.035286 58.01619 C 65.748871 57.723236 65.413864 57.437408 64.740303 57.072189 z" stroke-linecap="round"></path>
</g>
		<g transform="matrix(7.0718 0 0 7.0718 -52.1341 1.698)" id="SvgjsG1008">
<path style="stroke: none; stroke-width: 1; stroke-dasharray: none; stroke-linecap: butt; stroke-dashoffset: 0; stroke-linejoin: miter; stroke-miterlimit: 4; is-custom-font: none; font-file-url: none; fill: rgb(3,175,201); fill-rule: nonzero; opacity: 1;" transform=" translate(-57.7364, -65.3384)" d="M 61.932587 65.916641 C 62.324429 67.871742 61.949379 69.51133 59.79269 70.227989 C 57.456768 71.004211 57.086147 68.830544 56.240372 67.627083 C 52.234741 61.927448 52.288177 61.787941 57.576534 60.285355 C 58.667511 60.486847 58.444157 61.201221 58.863857 61.829281 C 59.03112 62.045029 58.99118 62.005028 58.976093 61.981133 C 59.199768 62.198898 59.439472 62.439621 59.862755 62.857056 C 60.045403 63.034698 60.006813 62.995518 59.992493 62.972046 C 60.416649 63.402584 60.487877 64.010658 60.846218 64.810608 C 61.031551 65.045174 60.992245 65.005127 60.977551 64.981224 C 61.20369 65.197136 61.438499 65.442711 61.856899 65.864357 C 62.046501 66.034676 61.96735 65.958961 61.932587 65.916641 z" stroke-linecap="round"></path>
</g>
		<g transform="matrix(7.0718 0 0 7.0718 -46.6125 -33.2609)" id="SvgjsG1007">
<path style="stroke: none; stroke-width: 1; stroke-dasharray: none; stroke-linecap: butt; stroke-dashoffset: 0; stroke-linejoin: miter; stroke-miterlimit: 4; is-custom-font: none; font-file-url: none; fill: rgb(28,104,126); fill-rule: nonzero; opacity: 1;" transform=" translate(-58.5171, -60.395)" d="M 59.082386 61.657433 C 58.682209 61.668587 58.333302 61.292149 57.951866 60.652481 C 58.072453 60.032581 58.225559 59.675907 58.603642 59.132378 C 58.930294 59.720295 59.031971 60.495064 59.082386 61.657433 z" stroke-linecap="round"></path>
</g>
		<g transform="matrix(7.0718 0 0 7.0718 24.53 -20.3551)" id="SvgjsG1006">
<path style="stroke: none; stroke-width: 1; stroke-dasharray: none; stroke-linecap: butt; stroke-dashoffset: 0; stroke-linejoin: miter; stroke-miterlimit: 4; is-custom-font: none; font-file-url: none; fill: rgb(29,103,125); fill-rule: nonzero; opacity: 1;" transform=" translate(-68.5771, -62.22)" d="M 67.940811 61.352692 C 68.36393 61.35215 68.750504 61.751427 69.204071 62.430138 C 69.271072 62.709576 68.960175 62.992474 68.773743 63.087276 C 68.359627 62.705555 68.13195 62.229031 67.940811 61.352692 z" stroke-linecap="round"></path>
</g>
		<g transform="matrix(7.0718 0 0 7.0718 9.7822 -43.1358)" id="SvgjsG1005">
<path style="stroke: none; stroke-width: 1; stroke-dasharray: none; stroke-linecap: butt; stroke-dashoffset: 0; stroke-linejoin: miter; stroke-miterlimit: 4; is-custom-font: none; font-file-url: none; fill: rgb(31,97,118); fill-rule: nonzero; opacity: 1;" transform=" translate(-66.4917, -58.9987)" d="M 65.91983 58.268501 C 66.347176 58.429119 66.720406 58.917965 67.063507 59.728809 C 66.64415 59.566116 66.254929 59.081417 65.91983 58.268501 z" stroke-linecap="round"></path>
</g>
		<g transform="matrix(7.0718 0 0 7.0718 -32.5418 -7.7904)" id="SvgjsG1004">
<path style="stroke: none; stroke-width: 1; stroke-dasharray: none; stroke-linecap: butt; stroke-dashoffset: 0; stroke-linejoin: miter; stroke-miterlimit: 4; is-custom-font: none; font-file-url: none; fill: rgb(28,104,126); fill-rule: nonzero; opacity: 1;" transform=" translate(-60.5068, -63.9967)" d="M 61.060913 64.723686 C 60.663448 64.560394 60.295345 64.075615 59.952705 63.269707 C 60.348873 63.433113 60.719574 63.917656 61.060913 64.723686 z" stroke-linecap="round"></path>
</g>
		<g transform="matrix(7.0718 0 0 7.0718 1.1818 -53.9146)" id="SvgjsG1003">
<path style="stroke: none; stroke-width: 1; stroke-dasharray: none; stroke-linecap: butt; stroke-dashoffset: 0; stroke-linejoin: miter; stroke-miterlimit: 4; is-custom-font: none; font-file-url: none; fill: rgb(31,97,118); fill-rule: nonzero; opacity: 1;" transform=" translate(-65.2755, -57.4745)" d="M 64.641197 57.232719 C 64.872963 57.101501 65.317657 57.241302 65.909836 57.710632 C 65.656258 57.861359 65.255196 57.682549 64.641197 57.232719 z" stroke-linecap="round"></path>
</g>
		<g transform="matrix(7.0718 0 0 7.0718 16.9143 -32.4638)" id="SvgjsG1002">
<path style="stroke: none; stroke-width: 1; stroke-dasharray: none; stroke-linecap: butt; stroke-dashoffset: 0; stroke-linejoin: miter; stroke-miterlimit: 4; is-custom-font: none; font-file-url: none; fill: rgb(29,103,125); fill-rule: nonzero; opacity: 1;" transform=" translate(-67.5002, -60.5077)" d="M 67.019104 60.26239 C 67.290253 60.138199 67.604668 60.306835 67.981277 60.754395 C 67.716446 60.873951 67.389412 60.714584 67.019104 60.26239 z" stroke-linecap="round"></path>
</g>
		<g transform="matrix(7.0718 0 0 7.0718 -39.6216 -18.418)" id="SvgjsG1001">
<path style="stroke: none; stroke-width: 1; stroke-dasharray: none; stroke-linecap: butt; stroke-dashoffset: 0; stroke-linejoin: miter; stroke-miterlimit: 4; is-custom-font: none; font-file-url: none; fill: rgb(28,104,126); fill-rule: nonzero; opacity: 1;" transform=" translate(-59.5057, -62.4939)" d="M 59.983952 62.749836 C 59.728222 62.862396 59.411041 62.690094 59.027435 62.237514 C 59.281506 62.12648 59.602001 62.295727 59.983952 62.749836 z" stroke-linecap="round"></path>
</g>
		<g transform="matrix(7.0718 0 0 7.0718 -25.4887 2.8192)" id="SvgjsG1000">
<path style="stroke: none; stroke-width: 1; stroke-dasharray: none; stroke-linecap: butt; stroke-dashoffset: 0; stroke-linejoin: miter; stroke-miterlimit: 4; is-custom-font: none; font-file-url: none; fill: rgb(28,104,126); fill-rule: nonzero; opacity: 1;" transform=" translate(-61.5042, -65.4969)" d="M 61.981911 65.753586 C 61.727646 65.864357 61.408794 65.694031 61.026398 65.240509 C 61.281013 65.129044 61.599167 65.300774 61.981911 65.753586 z" stroke-linecap="round"></path>
</g>
</g>
</g>
</svg><style>@media (prefers-color-scheme: light) { :root { filter: none; } }
</style></svg>