<svg id="eYhCve0qQyK1" xmlns="http://www.w3.org/2000/svg" xmlns:xlink="http://www.w3.org/1999/xlink" viewBox="0 0 100 100" shape-rendering="geometricPrecision" text-rendering="geometricPrecision" style="background-color:transparent">
<style><![CDATA[
#eYhCve0qQyK3 {animation: eYhCve0qQyK3_c_o 3000ms linear infinite normal forwards}@keyframes eYhCve0qQyK3_c_o { 0% {opacity: 0} 30% {opacity: 0} 36.666667% {opacity: 1} 100% {opacity: 1}} #eYhCve0qQyK4 {animation: eYhCve0qQyK4_c_o 3000ms linear infinite normal forwards}@keyframes eYhCve0qQyK4_c_o { 0% {opacity: 0} 36.666667% {opacity: 0} 43.333333% {opacity: 0.96} 100% {opacity: 0.96}} #eYhCve0qQyK5 {animation: eYhCve0qQyK5_c_o 3000ms linear infinite normal forwards}@keyframes eYhCve0qQyK5_c_o { 0% {opacity: 0} 43.333333% {opacity: 0} 50% {opacity: 1} 100% {opacity: 1}} #eYhCve0qQyK6 {animation: eYhCve0qQyK6_c_o 3000ms linear infinite normal forwards}@keyframes eYhCve0qQyK6_c_o { 0% {opacity: 0} 50% {opacity: 0} 56.666667% {opacity: 1} 100% {opacity: 1}} #eYhCve0qQyK7 {animation: eYhCve0qQyK7_c_o 3000ms linear infinite normal forwards}@keyframes eYhCve0qQyK7_c_o { 0% {opacity: 0} 63.333333% {opacity: 0} 83.333333% {opacity: 1} 100% {opacity: 1}} #eYhCve0qQyK8 {animation: eYhCve0qQyK8_c_o 3000ms linear infinite normal forwards}@keyframes eYhCve0qQyK8_c_o { 0% {opacity: 0} 56.666667% {opacity: 0} 63.333333% {opacity: 1} 100% {opacity: 1}} #eYhCve0qQyK9 {animation: eYhCve0qQyK9_c_o 3000ms linear infinite normal forwards}@keyframes eYhCve0qQyK9_c_o { 0% {opacity: 0} 60% {opacity: 0} 66.666667% {opacity: 1} 100% {opacity: 1}} #eYhCve0qQyK11 {animation: eYhCve0qQyK11_c_o 3000ms linear infinite normal forwards}@keyframes eYhCve0qQyK11_c_o { 0% {opacity: 0} 23.333333% {opacity: 0} 30% {opacity: 1} 100% {opacity: 1}} #eYhCve0qQyK12 {animation: eYhCve0qQyK12_c_o 3000ms linear infinite normal forwards}@keyframes eYhCve0qQyK12_c_o { 0% {opacity: 0} 16.666667% {opacity: 0} 23.333333% {opacity: 1} 100% {opacity: 1}} #eYhCve0qQyK13 {animation: eYhCve0qQyK13_c_o 3000ms linear infinite normal forwards}@keyframes eYhCve0qQyK13_c_o { 0% {opacity: 0} 10% {opacity: 0} 16.666667% {opacity: 1} 100% {opacity: 1}} #eYhCve0qQyK14 {animation: eYhCve0qQyK14_c_o 3000ms linear infinite normal forwards}@keyframes eYhCve0qQyK14_c_o { 0% {opacity: 0} 3.333333% {opacity: 0} 10% {opacity: 1} 100% {opacity: 1}} #eYhCve0qQyK15 {animation: eYhCve0qQyK15_c_o 3000ms linear infinite normal forwards}@keyframes eYhCve0qQyK15_c_o { 0% {opacity: 0} 66.666667% {opacity: 0} 73.333333% {opacity: 1} 100% {opacity: 1}} #eYhCve0qQyK16 {animation: eYhCve0qQyK16_c_o 3000ms linear infinite normal forwards}@keyframes eYhCve0qQyK16_c_o { 0% {opacity: 0} 70% {opacity: 0} 76.666667% {opacity: 1} 100% {opacity: 1}}
]]></style>
<g transform="matrix(.8 0 0 0.8 0-.000001)"><path id="eYhCve0qQyK3" d="M50.953,66.49l9.318-17.608c-3.081-1.522-6.567-2.397-10.27-2.397s-7.189.875-10.27,2.397L49.049,66.49c.363.976,1.539.976,1.904,0Z" opacity="0" fill="#ccc"/><path id="eYhCve0qQyK4" d="M60.27,48.882L50.953,66.49c-.365.975-1.54.975-1.905,0L39.73,48.882C32.473,52.467,27.5,59.713,27.5,68.088v14.467c0,2.984,2.52,5.403,5.628,5.403h33.745c3.108,0,5.628-2.419,5.628-5.403v-14.467C72.5,59.713,67.527,52.467,60.27,48.882Z" opacity="0"/><circle id="eYhCve0qQyK5" r="14.513" transform="translate(50 36.972)" opacity="0" fill="#c7b299"/><path id="eYhCve0qQyK6" d="M50,22.458c-.426,0-.846.028-1.263.064-1.04851.08763-2.084315.289493-3.089.602-5.362186,1.692985-9.264391,6.33036-10.016,11.903.637.112,1.288.181,1.957.181c4.154,0,7.773-2.258,9.721-5.607c2.876,6.114,9.074,10.357,16.279,10.357.21,0,.414-.024.622-.031.197-.954.303-1.942.303-2.955c0-8.016-6.498-14.514-14.514-14.514Z" opacity="0" fill="#e0e0e0"/><path id="eYhCve0qQyK7" d="M60.568,30.542h-21.837c-1.06449-.000292-1.946455-.82585-2.017-1.888l-.921-13.878c-.041861-.71012.210989-1.406071.698915-1.923711s1.167732-.811145,1.879085-.811289h22.556c.711446-.000148,1.391428.293266,1.879418.810975s.74074,1.213829.698582,1.924025l-.921,13.878c-.069561,1.062219-.951506,1.888167-2.016,1.888Z" opacity="0"/><path id="eYhCve0qQyK8" d="M41.418,43.577c.762.264,1.528.502,2.287.672.764.16,1.538.153,2.222.161.706-.012,1.274-.261,1.848-.283.594-.042,1.223-.213,2.147-.516l.156.153c-.051458,1.139258-.652424,2.182745-1.612,2.799-.912.603-1.953.407-2.793.134-.869-.253-1.605-.811-2.31-1.309-.702802-.495757-1.380319-1.026422-2.03-1.59l.085-.221Z" opacity="0" fill="#e0e0e0"/><path id="eYhCve0qQyK9" d="M58.501,43.797c-.649431.563882-1.326963,1.09456-2.03,1.59-.705.499-1.442,1.056-2.31,1.309-.84.273-1.881.468-2.793-.134-.960077-.615777-1.561206-1.659548-1.612-2.799l.156-.153c.924.303,1.553.475,2.147.516.574.021,1.142.27,1.848.283.684-.008,1.458-.001,2.222-.161.759-.17,1.525-.408,2.287-.672l.085.221Z" opacity="0" fill="#e0e0e0"/><g><path id="eYhCve0qQyK11" d="M53.178,51.898L50,52.834l-3.178-.937c-.399243-.117952-.830734-.040653-1.164201.208562s-.529828.641135-.529799,1.057438v2.438c-.000344.416479.195884.808693.529398,1.058139s.76519.326863,1.164602.208861L50,55.932l3.178.937c.399412.118002.831088.040585,1.164602-.208861s.529742-.64166.529398-1.058139v-2.438c.000029-.416303-.196332-.808224-.529799-1.057438s-.764958-.326514-1.164201-.208562Z" opacity="0" fill="#131f25"/><path id="eYhCve0qQyK12" d="M50.421,52.523c-.279178-.035999-.561822-.035999-.841,0-.363.046-.636.4-.636.812v2.097c0,.412.273.765.636.812.279.036.562.036.841,0c.363-.046.636-.4.636-.812v-2.097c0-.412-.273-.766-.636-.812Z" opacity="0"/></g><circle id="eYhCve0qQyK13" r="1.147" transform="translate(50 60.23)" opacity="0" fill="#131f25"/><circle id="eYhCve0qQyK14" r="1.147" transform="translate(50 63.708)" opacity="0" fill="#131f25"/><path id="eYhCve0qQyK15" d="M69,32.758c0,2.267-38,2.267-38,0v-2.036c0-1.054,1.303-1.837,2.721-1.653c6.998.907,25.559.907,32.557,0c1.419-.184,2.722.599,2.722,1.653v2.036Z" opacity="0"/><path id="eYhCve0qQyK16" d="M35.817,29.286c1.208.102,2.592.188,4.097.256h20.173c1.213-.055,2.345-.121,3.373-.198l.731-1.892c.468-1.211.102-2.657-1.005-3.336-.434887-.267235-.935569-.40816-1.446-.407h-24.182c-.531,0-1.026.149-1.446.407-1.107.679-1.473,2.125-1.005,3.336l.71,1.834Z" opacity="0" fill="#333"/></g></svg>
